<?xml version="1.0" encoding="utf-8"?>
<!-- Generator: Adobe Illustrator 26.0.1, SVG Export Plug-In . SVG Version: 6.00 Build 0)  -->
<svg version="1.1" id="Calque_1" xmlns="http://www.w3.org/2000/svg" xmlns:xlink="http://www.w3.org/1999/xlink" x="0px" y="0px"
	 viewBox="0 0 96 96" style="enable-background:new 0 0 96 96;" xml:space="preserve">
<style type="text/css">
	.st0{fill:#FEFEFE;}
	.st1{fill:#D0D0D0;}
	.st2{fill:#FDFDFD;}
</style>
<g>
	<g>
		<path class="st0" d="M96,48.1c0,15.6,0,31.3,0,46.9c0,0.8-0.1,1-1,1c-31.3,0-62.7,0-94,0c-0.9,0-1-0.3-1-1.1C0,63.6,0,32.3,0,1
			c0-0.9,0.2-1,1-1c31.3,0,62.6,0,93.9,0c1,0,1.1,0.3,1.1,1.1C96,16.8,96,32.5,96,48.1z M44.1,64.1c2.8,0,5.7,0,8.5,0
			c1.9,0,3.6-0.4,5.3-1c4.8-1.8,7.4-5.6,9.4-10c0.3-0.6,0.6-1.3,0.6-2c-0.1-3.7,0.5-7.5-1.9-11c-0.8-1.2-1.5-2.4-2.5-3.4
			c-0.9-1-2.1-1.7-3.2-2.6c-1.3-1-2.7-1.5-4.2-1.9c-1.9-0.6-3.8-0.3-5.7-0.5c-3.4-0.3-6.2,1.2-8.9,3c-1.3,0.9-2.6,2-4.4,1.6
			c-2.3-0.5-4.4,0.7-6.4,1.6c-1.9,0.9-3.4,2.3-4.8,3.9c-2,2.2-3.1,4.9-3.1,7.9c0,3.1,0.6,6,2.5,8.6c2.6,3.5,5.7,5.8,10.2,5.8
			C38.4,64.1,41.3,64.1,44.1,64.1z"/>
		<path class="st1" d="M44.1,64.1c-2.9,0-5.8,0-8.6,0c-4.4-0.1-7.6-2.3-10.2-5.8c-1.9-2.6-2.6-5.5-2.5-8.6c0-3,1.1-5.7,3.1-7.9
			c1.4-1.6,2.9-3,4.8-3.9c2.1-0.9,4.1-2,6.4-1.6c1.8,0.4,3.1-0.7,4.4-1.6c2.7-1.8,5.5-3.3,8.9-3c1.9,0.1,3.8-0.1,5.7,0.5
			c1.5,0.5,2.9,0.9,4.2,1.9c1.1,0.8,2.3,1.5,3.2,2.6c1,1,1.7,2.3,2.5,3.4c2.4,3.4,1.8,7.2,1.9,11c0,0.7-0.3,1.4-0.6,2
			c-2,4.4-4.6,8.2-9.4,10c-1.7,0.6-3.5,1.1-5.3,1C49.8,64,47,64.1,44.1,64.1z M51.4,61.1c2.9,0.6,5.5-0.5,7.8-2.2
			c1.9-1.4,3.4-3.2,4.5-5.5c1.2-2.3,1.3-4.7,1.2-7.1c-0.1-1.8-0.8-3.6-1.8-5.3c-1.4-2.3-3.3-4.3-5.9-5.2c-2.4-0.9-4.9-1.3-7.5-1.1
			c-2.4,0.2-4.5,1-6.5,2.5c-0.2,0.2-0.4,0.4-0.2,0.7c0.5,0.7,2.8,1.4,3.6,1c2-1,4-1.4,6.4-1c1.5,0.3,2.8,0.8,4,1.4
			c2.2,1.2,3.9,3.2,4.5,5.8c0.9,4.2-0.1,7.8-3.4,10.7c-2.7,2.3-5.9,2.6-9.1,2.1c-2-0.3-3.6-1.6-5-3c-1.9-1.9-3.8-3.8-5.8-5.8
			c-0.7-0.7-2-0.7-2.7-0.1c-0.6,0.5-0.4,1.7,0.3,2.4c1.9,1.9,3.9,3.6,5.8,5.6C44.1,60,47.2,61.7,51.4,61.1z M37.1,61.2
			c1.4,0,2.4,0,3.4,0c0.2,0,0.5,0.1,0.6-0.2c0.1-0.2-0.1-0.4-0.2-0.5c-1.1-1.4-2.5-2.4-4.4-2.4c-1.6,0-2.9-0.6-4.2-1.5
			c-4.3-3.1-4.6-9,0-12.5c1.8-1.3,3.8-0.9,5.7-1.2c1.8-0.3,3.1,0.7,4.2,1.8c1.5,1.4,2.8,2.8,4.3,4.3c0.9,0.9,1.8,0.9,2.5,0.2
			c0.6-0.7,0.5-1.6-0.2-2.4c-1.5-1.5-2.9-3-4.4-4.4c-1.3-1.2-2.8-2.1-4.5-2.5c-3.4-0.8-6.6-0.3-9.4,1.8c-2.6,1.9-4.5,4.3-4.3,7.8
			c0,0.8,0,1.7,0,2.5c0,1.9,0.7,3.5,1.8,4.8C30.4,59.7,33.4,61.8,37.1,61.2z"/>
		<path class="st2" d="M51.4,61.1c-4.2,0.5-7.3-1.2-9.9-4c-1.8-1.9-3.8-3.7-5.8-5.6c-0.7-0.7-0.9-1.9-0.3-2.4c0.7-0.7,2-0.7,2.7,0.1
			c1.9,1.9,3.8,3.8,5.8,5.8c1.4,1.4,3.1,2.7,5,3c3.2,0.5,6.4,0.2,9.1-2.1c3.3-2.9,4.4-6.5,3.4-10.7c-0.6-2.6-2.3-4.6-4.5-5.8
			c-1.2-0.6-2.5-1.1-4-1.4c-2.4-0.4-4.3,0-6.4,1c-0.8,0.4-3.1-0.3-3.6-1c-0.2-0.3,0-0.5,0.2-0.7c1.9-1.4,4-2.3,6.5-2.5
			c2.6-0.2,5.1,0.2,7.5,1.1c2.6,0.9,4.4,2.9,5.9,5.2c1,1.6,1.7,3.4,1.8,5.3c0.2,2.4,0,4.8-1.2,7.1c-1.1,2.2-2.6,4-4.5,5.5
			C56.9,60.6,54.2,61.7,51.4,61.1z"/>
		<path class="st2" d="M37.1,61.2c-3.7,0.6-6.7-1.5-9.2-4.4c-1.1-1.3-1.8-3-1.8-4.8c0-0.8,0-1.7,0-2.5c-0.2-3.5,1.7-5.9,4.3-7.8
			c2.8-2,6-2.6,9.4-1.8c1.7,0.4,3.2,1.3,4.5,2.5c1.5,1.4,3,2.9,4.4,4.4c0.8,0.8,0.9,1.8,0.2,2.4c-0.7,0.7-1.6,0.7-2.5-0.2
			c-1.4-1.4-2.8-2.9-4.3-4.3c-1.2-1.1-2.5-2.1-4.2-1.8c-1.9,0.3-3.9-0.2-5.7,1.2c-4.6,3.5-4.3,9.4,0,12.5c1.3,0.9,2.6,1.4,4.2,1.5
			c1.8,0,3.2,1,4.4,2.4c0.1,0.1,0.3,0.3,0.2,0.5c-0.1,0.3-0.4,0.2-0.6,0.2C39.5,61.2,38.6,61.2,37.1,61.2z"/>
	</g>
</g>
</svg>
