<?xml version="1.0" encoding="utf-8"?>
<!-- Generator: Adobe Illustrator 26.0.1, SVG Export Plug-In . SVG Version: 6.00 Build 0)  -->
<svg version="1.1" id="Calque_1" xmlns="http://www.w3.org/2000/svg" xmlns:xlink="http://www.w3.org/1999/xlink" x="0px" y="0px"
	 viewBox="0 0 96 96" style="enable-background:new 0 0 96 96;" xml:space="preserve">
<style type="text/css">
	.st0{fill:#FEFEFE;}
	.st1{fill:#CFCFCF;}
</style>
<g>
	<g>
		<path class="st0" d="M96,48.1c0,15.6,0,31.3,0,46.9c0,0.8-0.2,1-1,1c-31.3,0-62.7,0-94,0c-0.8,0-1-0.2-1-1C0,63.7,0,32.3,0,1
			c0-0.8,0.2-1,1-1c31.3,0,62.7,0,94,0c0.8,0,1,0.2,1,1C96,16.7,96,32.4,96,48.1z M47.6,31.2c-4,0-8.1,0-12.1,0
			c-2.4,0-2.4,0-2.1,2.4c0,0.1,0,0.2,0.1,0.4c0.3,2.8,0.9,5.6,0.9,8.5c0,2.3,0.5,4.7,0.5,7c0.1,3.1,0.9,6.2,0.9,9.3
			c0,0.8,0.2,1.3,1.1,1.5c3.4,0.9,6.8,1.9,10.2,2.8c0.5,0.1,1,0.1,1.5,0c3.4-0.9,6.9-1.9,10.3-2.8c0.4-0.1,0.6-0.4,0.7-0.7
			c0.3-0.9,0.2-1.7,0.2-2.6c0.4-4.1,0.6-8.2,1.2-12.3c0.2-1.2,0.2-2.5,0.3-3.7c0.2-2.9,0.4-5.7,0.7-8.5c0.1-1-0.3-1.2-1.2-1.2
			C56.3,31.2,52,31.2,47.6,31.2z"/>
		<path class="st1" d="M47.6,31.2c4.4,0,8.7,0,13.1,0c0.9,0,1.3,0.2,1.2,1.2c-0.3,2.8-0.5,5.7-0.7,8.5c-0.1,1.2-0.1,2.5-0.3,3.7
			c-0.6,4.1-0.8,8.2-1.2,12.3c-0.1,0.9,0,1.8-0.2,2.6c-0.1,0.4-0.3,0.6-0.7,0.7c-3.4,0.9-6.9,1.9-10.3,2.8c-0.5,0.1-1,0.1-1.5,0
			c-3.4-0.9-6.8-1.9-10.2-2.8c-0.8-0.2-1.1-0.7-1.1-1.5c0-3.1-0.7-6.2-0.9-9.3c-0.1-2.4-0.6-4.7-0.5-7c0-2.9-0.6-5.7-0.9-8.5
			c0-0.1,0-0.2-0.1-0.4c-0.3-2.4-0.2-2.4,2.1-2.4C39.6,31.2,43.6,31.2,47.6,31.2z M49.8,44.2c0.1-0.6,0.5-0.6,0.7-0.8
			c1.6-0.8,3.3-1.7,4.9-2.5c0.7-0.3,1.1-0.8,1-1.6c-0.1-0.4,0.1-0.9,0.2-1.3c0.2-0.9,0-1.4-1.1-1.4c-4.6,0.1-9.3,0-13.9,0
			c-2.7,0-2.7,0-2.7,2.7c0,0.9,0.2,1.2,1.1,1.2c1.6-0.1,3.1,0,4.7,0c0.2,0,0.5,0,0.6,0.3c0,0.2-0.2,0.3-0.4,0.4
			c-1.4,0.4-2.5,1.4-3.9,1.9c-1.1,0.4-1.6,1-1.4,2.1c0,0.4,0,0.7,0,1.1c-0.1,1.1,0.2,1.5,1.4,1.4c3.3-0.1,6.6,0,9.8,0
			c0.5,0,1.1-0.1,1.1,0.7c0,1.1,0,2.2,0,3.2c0,0.4-0.2,0.6-0.6,0.8c-2.3,0.7-4.5,1.2-6.8,0c-0.4-0.2-0.7-0.3-0.8-0.9
			c-0.1-2.2-0.2-2.2-2.4-2.2c-0.3,0-0.6,0-1,0c-0.3,0-0.4,0.2-0.4,0.5c0.3,1.2,0,2.4,0.1,3.6c0.1,1,0.3,1.8,1.5,1.9
			c1.6,0.1,3.1,0.8,4.6,1.3c0.9,0.3,1.9,0.4,2.7,0c1.6-0.6,3.2-1,4.8-1.3c1.1-0.2,1.7-0.9,1.7-1.9c-0.1-2.7,0.4-5.4,0.5-8.1
			c0-1-0.3-1.3-1.3-1.3C53,44.2,51.4,44.2,49.8,44.2z"/>
		<path class="st0" d="M49.8,44.2c1.6,0,3.3,0.1,4.9,0c1,0,1.3,0.2,1.3,1.3c-0.1,2.7-0.6,5.4-0.5,8.1c0,1.1-0.6,1.7-1.7,1.9
			c-1.6,0.3-3.2,0.7-4.8,1.3c-0.8,0.3-1.8,0.2-2.7,0c-1.5-0.5-3-1.1-4.6-1.3c-1.3-0.1-1.5-1-1.5-1.9c-0.1-1.2,0.1-2.4-0.1-3.6
			c-0.1-0.3,0.1-0.5,0.4-0.5c0.3,0,0.6,0,1,0c2.2,0,2.2,0,2.4,2.2c0,0.6,0.4,0.7,0.8,0.9c2.3,1.2,4.5,0.7,6.8,0
			c0.4-0.1,0.6-0.3,0.6-0.8c0-1.1,0-2.2,0-3.2c0-0.8-0.6-0.7-1.1-0.7c-3.3,0-6.6-0.1-9.8,0c-1.1,0-1.5-0.4-1.4-1.4
			c0-0.4,0-0.7,0-1.1c-0.2-1.1,0.3-1.8,1.4-2.1c1.4-0.5,2.5-1.5,3.9-1.9c0.2-0.1,0.4-0.2,0.4-0.4c0-0.3-0.3-0.3-0.6-0.3
			c-1.6,0-3.1-0.1-4.7,0c-0.9,0-1.1-0.3-1.1-1.2c0-2.7,0-2.7,2.7-2.7c4.6,0,9.3,0,13.9,0c1.1,0,1.3,0.5,1.1,1.4
			c-0.1,0.4-0.3,0.8-0.2,1.3c0.1,0.8-0.3,1.2-1,1.6c-1.6,0.8-3.3,1.6-4.9,2.5C50.2,43.5,49.9,43.6,49.8,44.2z"/>
	</g>
</g>
</svg>
