<?xml version="1.0" encoding="utf-8"?>
<!-- Generator: Adobe Illustrator 26.0.1, SVG Export Plug-In . SVG Version: 6.00 Build 0)  -->
<svg version="1.1" id="Calque_1" xmlns="http://www.w3.org/2000/svg" xmlns:xlink="http://www.w3.org/1999/xlink" x="0px" y="0px"
	 viewBox="0 0 96 96" style="enable-background:new 0 0 96 96;" xml:space="preserve">
<style type="text/css">
	.st0{fill:#FEFEFE;}
	.st1{fill:#CFCFCF;}
	.st2{fill:#E1E1E1;}
</style>
<g>
	<g>
		<path class="st0" d="M96,48.1c0,15.6,0,31.3,0,46.9c0,0.8-0.2,1-1,1c-31.3,0-62.7,0-94,0c-0.8,0-1-0.2-1-1C0,63.7,0,32.3,0,1
			c0-0.8,0.2-1,1-1c31.3,0,62.7,0,94,0c0.8,0,1,0.2,1,1C96,16.7,96,32.4,96,48.1z M56.4,64.1c0.3-0.1,0.3-0.3,0-0.5
			c-0.2-0.2-0.3-0.4-0.5-0.5c-2.3-2.2-4.6-4.4-6.9-6.7c-1.1-1.1-1-1,0.1-2.1c2.3-2.2,4.5-4.6,6.7-6.8c0.4-0.4,0.3-0.6-0.3-0.7
			c-0.5-0.1-1-0.2-1.5-0.2c-2,0-3.9,0-5.9,0c-0.9,0-1.5,0.2-2.1,0.8c-2.5,2.4-4.8,5-7.4,7.3c-0.6,0.5-0.2,0.9,0.2,1.2
			c2.5,2.5,5,5,7.5,7.5c0.5,0.5,1,0.6,1.6,0.6C50.7,64,53.5,64.1,56.4,64.1z M56.7,31.7c-3.3,0-6.4,0-9.4,0c-0.4,0-0.6,0.2-0.8,0.4
			c-5.2,4.9-10.2,10-15.3,15c-0.5,0.5-0.5,0.9,0,1.4c1.2,1.1,2.3,2.2,3.4,3.4c0.7,0.8,1.2,0.8,2,0c6.2-6.1,12.1-12.4,18.5-18.3
			C55.5,33.1,56.2,32.6,56.7,31.7z"/>
		<path class="st1" d="M56.7,31.7c-0.6,0.9-1.2,1.4-1.7,2C48.6,39.6,42.7,45.9,36.5,52c-0.8,0.8-1.2,0.8-2,0
			c-1.1-1.2-2.2-2.3-3.4-3.4c-0.5-0.5-0.5-0.9,0-1.4c5.1-5,10.1-10.1,15.3-15c0.2-0.2,0.5-0.4,0.8-0.4
			C50.3,31.7,53.4,31.7,56.7,31.7z"/>
		<path class="st1" d="M56.4,64.1c-2.8,0-5.7,0-8.5,0c-0.6,0-1.1-0.1-1.6-0.6c-2.5-2.5-5-5-7.5-7.5c-0.4-0.4-0.8-0.7-0.2-1.2
			c2.7-2.2,5-4.8,7.4-7.3c0.6-0.6,1.2-0.9,2.1-0.8c2,0.1,3.9,0,5.9,0c0.5,0,1,0.1,1.5,0.2c0.6,0.1,0.7,0.3,0.3,0.7
			c-2.2,2.3-4.4,4.6-6.7,6.8c-1.1,1.1-1.2,1-0.1,2.1c2.3,2.2,4.6,4.4,6.9,6.7c0.2,0.2,0.3,0.4,0.5,0.5
			C56.4,63.7,56.4,63.9,56.4,64.1z"/>
		<path class="st2" d="M56.4,64.1c0-0.2,0-0.3,0-0.5C56.6,63.8,56.7,63.9,56.4,64.1z"/>
	</g>
</g>
</svg>
