<?xml version="1.0" encoding="utf-8"?>
<!-- Generator: Adobe Illustrator 26.0.1, SVG Export Plug-In . SVG Version: 6.00 Build 0)  -->
<svg version="1.1" id="Calque_1" xmlns="http://www.w3.org/2000/svg" xmlns:xlink="http://www.w3.org/1999/xlink" x="0px" y="0px"
	 viewBox="0 0 28.35 28.35" style="enable-background:new 0 0 28.35 28.35;" xml:space="preserve">
<style type="text/css">
	.st0{fill:#D0D0D0;}
	.st1{fill:#FDFDFD;}
</style>
<g>
	<g>
		<path class="st0" d="M14.01-0.08c0.32,0,0.63,0,0.95,0c0.48,0.89,1.34,0.39,2.02,0.54c6.01,1.39,9.77,5.07,11.28,11.1
			c0.08,0.33,0,0.75,0.5,0.83c0,0.4,0,0.8,0,1.2c-0.37,0.56-0.37,1.12,0,1.68c0,0.48,0,0.96,0,1.44c-0.35,0.03-0.41,0.29-0.48,0.58
			c-1.12,4.88-3.97,8.3-8.51,10.3c-0.3,0.13-0.74,0.14-0.76,0.63c-0.24,0-0.48,0-0.71,0c-0.46-1.56-0.19-3.17-0.24-4.75
			c-0.02-0.73-0.02-1.47-0.48-2.06C17,20.69,17.31,20.62,18,20.51c4.49-0.7,5.87-3.93,5.37-7.7c-0.24-1.84-1.39-3.51-1.21-5.53
			c0.1-1.06-0.7-1.48-1.58-0.95c-1.79,1.07-3.65,1.21-5.63,0.78c-0.27-0.06-0.56-0.06-0.83,0c-2.02,0.42-3.95,0.35-5.75-0.82
			C8.24,6.23,8.07,6.2,7.92,6.18C7.37,6.1,6.94,6.26,6.9,6.88C6.85,7.58,6.54,8.27,6.8,9c0.19,0.55,0.03,1.06-0.29,1.57
			c-1.53,2.42-1.17,4.9,0.06,7.27c0.92,1.77,2.68,2.37,4.53,2.69c0.26,0.05,0.76-0.1,0.59,0.46c-0.68,2.15-2.15,2.48-3.81,1.37
			c-0.44-0.3-0.74-0.82-1.08-1.25c-0.43-0.55-0.93-0.99-1.66-1.05c-0.25-0.02-0.6-0.14-0.72,0.21c-0.1,0.27,0.15,0.45,0.34,0.57
			c0.79,0.48,1.19,1.24,1.54,2.06c0.49,1.14,1.44,1.65,2.64,1.72c2.12,0.12,2.14,0.12,2,2.31c-0.03,0.43-0.16,0.85-0.25,1.28
			c-0.24,0-0.48,0-0.71,0c-0.06-0.58-0.57-0.59-0.95-0.75c-2.83-1.21-4.93-3.24-6.59-5.8c-0.99-1.53-1.25-3.33-1.97-4.95
			c0-1.52,0-3.04,0-4.55c0.02-0.03,0.05-0.06,0.05-0.09c-0.01-0.05-0.03-0.1-0.05-0.15c0-0.16,0-0.32,0-0.48
			c0.87-0.47,0.62-1.45,0.95-2.18c2.36-5.17,6.18-8.3,11.89-8.87C13.62,0.35,13.94,0.35,14.01-0.08z"/>
		<path class="st1" d="M10.68,28.21c0.09-0.43,0.22-0.85,0.25-1.28c0.14-2.19,0.13-2.19-2-2.31c-1.2-0.07-2.14-0.58-2.64-1.72
			c-0.35-0.82-0.75-1.58-1.54-2.06c-0.19-0.12-0.44-0.3-0.34-0.57c0.13-0.35,0.47-0.23,0.72-0.21c0.73,0.06,1.22,0.5,1.66,1.05
			c0.35,0.43,0.64,0.96,1.08,1.25c1.66,1.12,3.13,0.78,3.81-1.37c0.17-0.55-0.33-0.41-0.59-0.46c-1.85-0.33-3.61-0.92-4.53-2.69
			C5.33,15.48,4.98,13,6.5,10.58C6.83,10.06,6.99,9.55,6.8,9C6.54,8.27,6.85,7.58,6.9,6.88c0.04-0.62,0.47-0.78,1.02-0.7
			C8.07,6.2,8.24,6.23,8.37,6.31c1.79,1.17,3.73,1.24,5.75,0.82c0.27-0.06,0.56-0.06,0.83,0c1.97,0.42,3.83,0.29,5.63-0.78
			c0.88-0.53,1.68-0.11,1.58,0.95c-0.18,2.01,0.97,3.69,1.21,5.53c0.5,3.77-0.88,6.99-5.37,7.7c-0.68,0.11-0.99,0.18-0.44,0.88
			c0.46,0.59,0.46,1.33,0.48,2.06c0.05,1.59-0.22,3.19,0.24,4.75C15.75,28.21,13.21,28.21,10.68,28.21z"/>
		<path class="st1" d="M28.74,12.39c-0.5-0.07-0.41-0.49-0.5-0.83c-1.5-6.03-5.27-9.7-11.28-11.1c-0.67-0.16-1.54,0.35-2.02-0.54
			c4.36,0,8.72,0.01,13.07-0.02c0.59,0,0.73,0.14,0.73,0.74C28.73,4.56,28.74,8.47,28.74,12.39z"/>
		<path class="st1" d="M14.01-0.08c-0.06,0.43-0.39,0.43-0.71,0.46C7.58,0.95,3.76,4.08,1.4,9.25c-0.33,0.72-0.07,1.7-0.95,2.18
			c0-3.6,0.02-7.19-0.02-10.79C0.44,0.04,0.58-0.1,1.17-0.09C5.45-0.06,9.73-0.08,14.01-0.08z"/>
		<path class="st1" d="M19,28.21c0.02-0.49,0.46-0.5,0.76-0.63c4.54-2,7.39-5.42,8.51-10.3c0.07-0.29,0.12-0.55,0.48-0.58
			c0,3.6-0.02,7.19,0.02,10.79c0.01,0.6-0.13,0.74-0.73,0.74C25.02,28.19,22.01,28.21,19,28.21z"/>
		<path class="st1" d="M0.46,16.7c0.72,1.62,0.98,3.42,1.97,4.95c1.66,2.57,3.76,4.6,6.59,5.8c0.38,0.16,0.89,0.18,0.95,0.75
			c-2.97,0-5.94-0.02-8.91,0.02c-0.51,0.01-0.61-0.1-0.61-0.61C0.47,23.97,0.46,20.34,0.46,16.7z"/>
		<path class="st1" d="M28.74,15.26c-0.37-0.56-0.37-1.12,0-1.68C28.74,14.15,28.74,14.7,28.74,15.26z"/>
		<path class="st1" d="M0.46,11.91c0.02,0.05,0.05,0.1,0.05,0.15c0,0.03-0.03,0.06-0.05,0.09C0.46,12.07,0.46,11.99,0.46,11.91z"/>
	</g>
</g>
</svg>
