<?xml version="1.0" encoding="utf-8"?>
<!-- Generator: Adobe Illustrator 26.0.1, SVG Export Plug-In . SVG Version: 6.00 Build 0)  -->
<svg version="1.1" id="Calque_1" xmlns="http://www.w3.org/2000/svg" xmlns:xlink="http://www.w3.org/1999/xlink" x="0px" y="0px"
	 viewBox="0 0 96 96" style="enable-background:new 0 0 96 96;" xml:space="preserve">
<style type="text/css">
	.st0{fill:#FEFEFE;}
	.st1{fill:#CFCFCF;}
	.st2{fill:#ECECEC;}
</style>
<g>
	<g>
		<path class="st0" d="M96,48.1c0,15.6,0,31.3,0,46.9c0,0.8-0.2,1-1,1c-31.3,0-62.7,0-94,0c-0.8,0-1-0.2-1-1C0,63.7,0,32.3,0,1
			c0-0.8,0.2-1,1-1c31.3,0,62.7,0,94,0c0.8,0,1,0.2,1,1C96,16.7,96,32.4,96,48.1z M31.7,39.4c-0.2,0.2-0.2,0.3,0,0.5
			c-0.2,2,0.5,3.9,0.6,5.9c0.1,3.2,0.6,6.5,0.9,9.7c0.2,2.1,0.1,4.1,0.7,6.1c0.2,0.6,0.3,0.9,1,1.1c3.3,0.9,6.6,1.8,9.9,2.7
			c0.6,0.2,1.2,0.1,1.8,0c3.3-0.9,6.6-1.8,9.9-2.6c0.9-0.2,1.2-0.6,1.1-1.5c-0.1-1.6,0.2-3.1,0.3-4.6c0.2-2.8,0.5-5.6,0.9-8.3
			c0.2-1.6,0.1-3.2,0.3-4.8c0.3-2.8,0.5-5.7,0.7-8.5c0.1-1.1-0.2-1.4-1.4-1.4c-8.5,0.1-17.1,0-25.6,0c-1.3,0-1.7,0.3-1.3,1.5
			C31.8,36.5,31.6,37.9,31.7,39.4z"/>
		<path class="st1" d="M31.7,39.4c-0.1-1.4,0.1-2.8-0.4-4.2c-0.4-1.2-0.1-1.5,1.3-1.5c8.5,0,17.1,0,25.6,0c1.1,0,1.4,0.4,1.4,1.4
			c-0.2,2.9-0.4,5.7-0.7,8.5c-0.2,1.6,0,3.2-0.3,4.8c-0.4,2.8-0.7,5.5-0.9,8.3c-0.1,1.5-0.4,3.1-0.3,4.6c0.1,0.8-0.2,1.3-1.1,1.5
			c-3.3,0.8-6.6,1.7-9.9,2.6c-0.6,0.2-1.2,0.2-1.8,0c-3.3-0.9-6.6-1.8-9.9-2.7c-0.7-0.2-0.8-0.5-1-1.1c-0.5-2-0.5-4.1-0.7-6.1
			c-0.2-3.2-0.8-6.5-0.9-9.7c-0.1-2-0.8-3.9-0.6-5.9C31.9,39.7,31.9,39.5,31.7,39.4z M45.7,39.4c-2.6,0-5.2,0-7.8,0
			c-0.9,0-1.2,0.2-1.2,1.1c0,2.8,0.4,5.6,0.5,8.5c0,0.8,0.5,1.2,1.4,1.2c3.4,0,6.7,0,10.1,0c0.3,0,0.9-0.2,0.9,0.3
			c-0.1,1.2,0.3,2.3,0.1,3.4c-0.1,0.4-0.2,0.6-0.6,0.8c-2.4,1.2-4.9,1-7.3,0.1c-0.4-0.1-0.4-0.5-0.5-0.9c-0.2-2.2-0.2-2.2-2.4-2.2
			c-0.2,0-0.3,0-0.5,0c-0.6,0-0.7,0.2-0.8,0.8c-0.1,1.6,0.4,3.2,0.7,4.7c0.2,0.8,2,0.5,3,1c0.1,0.1,0.2,0.1,0.3,0.1
			c2,0.4,4,1.5,6.2,0.4c1.1-0.6,2.4-0.9,3.7-1c0.6-0.1,1.5-0.3,1.4-1.2c0-3,0.4-5.9,0.5-8.8c0-0.8-0.2-1-1-1c-3.2,0-6.3,0-9.5,0
			c-2.2,0-2.2,0-2.2-2.2c0-1.2,0.4-1.4,1.5-1.4c3.6,0.1,7.1,0,10.7,0c0.8,0,1.2-0.2,1.1-1.1c0-0.6-0.1-1.2,0.2-1.8
			c0.4-0.8,0.1-1-0.7-1C50.9,39.4,48.3,39.4,45.7,39.4z"/>
		<path class="st2" d="M31.7,39.4c0.3,0.2,0.3,0.3,0,0.5C31.5,39.7,31.4,39.5,31.7,39.4z"/>
		<path class="st0" d="M45.7,39.4c2.6,0,5.2,0,7.8,0c0.9,0,1.1,0.2,0.7,1c-0.3,0.6-0.2,1.2-0.2,1.8c0.1,0.8-0.3,1.1-1.1,1.1
			c-3.6,0-7.1,0-10.7,0c-1.1,0-1.5,0.2-1.5,1.4c0.1,2.2,0,2.2,2.2,2.2c3.2,0,6.3,0,9.5,0c0.8,0,1,0.2,1,1c-0.1,2.9-0.5,5.9-0.5,8.8
			c0,0.9-0.8,1.1-1.4,1.2c-1.3,0.2-2.5,0.5-3.7,1c-2.2,1.1-4.2,0.1-6.2-0.4c-0.1,0-0.2-0.1-0.3-0.1c-1-0.5-2.9-0.2-3-1
			c-0.3-1.5-0.8-3.1-0.7-4.7c0-0.5,0.2-0.8,0.8-0.8c0.2,0,0.3,0,0.5,0c2.2,0,2.2,0,2.4,2.2c0,0.4,0,0.7,0.5,0.9
			c2.5,0.9,4.9,1.1,7.3-0.1c0.4-0.2,0.5-0.4,0.6-0.8c0.2-1.2-0.2-2.3-0.1-3.4c0.1-0.5-0.5-0.3-0.9-0.3c-3.4,0-6.7,0-10.1,0
			c-0.9,0-1.4-0.4-1.4-1.2c-0.1-2.8-0.5-5.6-0.5-8.5c0-0.9,0.3-1.2,1.2-1.1C40.5,39.4,43.1,39.4,45.7,39.4z"/>
	</g>
</g>
</svg>
