<?xml version="1.0" encoding="utf-8"?>
<!-- Generator: Adobe Illustrator 26.0.1, SVG Export Plug-In . SVG Version: 6.00 Build 0)  -->
<svg version="1.1" id="Calque_1" xmlns="http://www.w3.org/2000/svg" xmlns:xlink="http://www.w3.org/1999/xlink" x="0px" y="0px"
	 viewBox="0 0 96 96" style="enable-background:new 0 0 96 96;" xml:space="preserve">
<style type="text/css">
	.st0{fill:#FEFEFE;}
	.st1{fill:#CFCFCF;}
	.st2{fill:#FDFDFD;}
</style>
<g>
	<g>
		<path class="st0" d="M96,48.1c0,15.6,0,31.3,0,46.9c0,0.8-0.2,1-1,1c-31.3,0-62.7,0-94,0c-0.8,0-1-0.2-1-1C0,63.7,0,32.3,0,1
			c0-0.8,0.2-1,1-1c31.3,0,62.7,0,94,0c0.8,0,1,0.2,1,1C96,16.7,96,32.4,96,48.1z M54,38.4c-3.9,0-7.8,0-11.7,0
			c-2.6,0-2.8,0.4-2.4,2.9c0.4,2.6,0.8,5.2,1,7.8c0.1,1.5,0.1,3,0.2,4.5c0.3,3.9,0.7,7.7,0.9,11.6c0.1,1.3,0.5,2.1,1.8,2.4
			c3,0.8,6.1,1.5,9,2.4c1.1,0.3,2,0.2,3-0.1c2.6-0.8,5.3-1.5,7.9-2.2c2.3-0.6,2.3-0.6,2.3-2.9c0-1.7,0.4-3.3,0.4-5
			c-0.1-2.6,1-5.1,0.8-7.7c-0.1-1.2,0.2-2.5,0.3-3.7c0.2-2.9,0.4-5.8,0.7-8.7c0.1-1.1-0.2-1.5-1.4-1.5C62.5,38.4,58.3,38.4,54,38.4z
			"/>
		<path class="st1" d="M54,38.4c4.2,0,8.5,0,12.7,0c1.2,0,1.5,0.4,1.4,1.5c-0.3,2.9-0.5,5.8-0.7,8.7c-0.1,1.2-0.3,2.5-0.3,3.7
			c0.1,2.6-0.9,5.1-0.8,7.7c0,1.7-0.3,3.3-0.4,5c-0.1,2.3-0.1,2.4-2.3,2.9c-2.6,0.7-5.3,1.5-7.9,2.2c-1,0.3-1.9,0.4-3,0.1
			c-3-0.9-6-1.7-9-2.4c-1.3-0.3-1.7-1.1-1.8-2.4c-0.2-3.9-0.6-7.7-0.9-11.6c-0.1-1.5-0.1-3-0.2-4.5c-0.2-2.6-0.6-5.2-1-7.8
			c-0.4-2.6-0.2-2.9,2.4-2.9C46.2,38.4,50.1,38.4,54,38.4z M55.2,50.2c0,1.8,0,3.5,0,5.3c0,0.6,0.1,1,0.9,0.8c1-0.2,2-0.1,3-0.3
			c0.7-0.2,1,0.1,1,0.9c-0.1,3.4,0.3,2.9-2.6,3.5c-0.1,0-0.2,0.1-0.3,0.1c-1.7,0.4-2.4,1.8-1.8,3.5c0.1,0.4,0.3,0.4,0.6,0.3
			c2-0.8,4.1-1.3,6.2-1.8c0.4-0.1,0.6-0.4,0.6-0.8c0.2-2.6,0.5-5.2,0.7-7.8c0.1-1.6-0.3-1.8-1.8-1.4c-0.1,0-0.2,0.1-0.3,0.1
			c-2.4,0.7-2.7,0.6-2.7-1.9c0-3.1,0-3.1,3-3.1c2.1,0,2.1,0,2.3-2c0-0.2,0-0.3,0.1-0.5c0.3-0.7,0-0.8-0.6-0.8c-2.4,0-4.8,0-7.2,0
			c-0.7,0-0.9,0.2-0.9,0.9C55.2,46.8,55.2,48.5,55.2,50.2z M53,54.1c0-2.6,0-5.2,0-7.8c0-2.5,0.4-2.1-2.1-2.2
			c-0.9,0-1.2,0.2-1.2,1.2c0.1,3.8,0,7.7,0,11.5c0,3.5,0.3,3.4-3.3,2.3c-0.7-0.2-1.6-0.8-2-0.4c-0.6,0.5-0.2,1.6-0.2,2.4
			c0,0.5,0.3,0.9,1,1.1c2.1,0.6,4.3,0.9,6.3,1.7c1.1,0.4,1.6,0.2,1.6-1C53,59.9,53,57,53,54.1z"/>
		<path class="st2" d="M55.2,50.2c0-1.7,0-3.4,0-5.2c0-0.7,0.2-0.9,0.9-0.9c2.4,0,4.8,0,7.2,0c0.6,0,0.9,0.2,0.6,0.8
			c-0.1,0.1-0.1,0.3-0.1,0.5c-0.2,2-0.2,2-2.3,2c-3,0-3,0-3,3.1c0,2.5,0.2,2.7,2.7,1.9c0.1,0,0.2-0.1,0.3-0.1
			c1.6-0.4,1.9-0.1,1.8,1.4c-0.2,2.6-0.5,5.2-0.7,7.8c0,0.4-0.2,0.7-0.6,0.8c-2.1,0.5-4.2,1-6.2,1.8c-0.3,0.1-0.5,0.1-0.6-0.3
			c-0.6-1.7,0.1-3.1,1.8-3.5c0.1,0,0.2-0.1,0.3-0.1c3-0.6,2.6-0.1,2.6-3.5c0-0.8-0.3-1.1-1-0.9c-1,0.2-2,0.1-3,0.3
			c-0.8,0.2-0.9-0.1-0.9-0.8C55.2,53.7,55.2,52,55.2,50.2z"/>
		<path class="st2" d="M53,54.1c0,2.9,0,5.8,0,8.7c0,1.2-0.4,1.4-1.6,1c-2-0.8-4.2-1.2-6.3-1.7c-0.6-0.2-0.9-0.6-1-1.1
			c-0.1-0.8-0.4-1.9,0.2-2.4c0.4-0.4,1.3,0.2,2,0.4c3.7,1.1,3.3,1.1,3.3-2.3c0-3.8,0-7.7,0-11.5c0-1,0.3-1.2,1.2-1.2
			c2.5,0.1,2.1-0.3,2.1,2.2C53.1,48.9,53,51.5,53,54.1z"/>
	</g>
</g>
</svg>
