<?xml version="1.0" encoding="utf-8"?>
<!-- Generator: Adobe Illustrator 26.0.1, SVG Export Plug-In . SVG Version: 6.00 Build 0)  -->
<svg version="1.1" id="Calque_1" xmlns="http://www.w3.org/2000/svg" xmlns:xlink="http://www.w3.org/1999/xlink" x="0px" y="0px"
	 viewBox="0 0 96 96" style="enable-background:new 0 0 96 96;" xml:space="preserve">
<style type="text/css">
	.st0{fill:#FEFEFE;}
	.st1{fill:#D1D1D1;}
	.st2{fill:#FDFDFD;}
	.st3{fill:#F1F1F1;}
</style>
<g>
	<g>
		<path class="st0" d="M96,48c0,15.7,0,31.3,0,47c0,0.8-0.1,1-1,1c-31.3,0-62.7,0-94,0c-0.9,0-1-0.2-1-1.1C0,63.6,0,32.4,0,1.1
			C0,0.2,0.1,0,1,0c31.3,0,62.7,0,94,0c0.8,0,1,0.2,1,1C96,16.7,96,32.3,96,48z M43.9,48.7c0-4.2,0-8.2,0-12.2c0-0.9-0.3-1.4-1-1.8
			c-1.3-0.7-2.7-1.4-3.9-2.2c-1.2-0.9-2.2-0.7-3.4,0.1c-1.2,0.9-2.6,1.6-4,2.2c-0.7,0.4-0.9,0.8-0.9,1.6c0,6.5,0,12.9,0,19.4
			c0,0.8,0.2,1.2,0.9,1.6c3.7,2.1,7.4,4.1,11,6.3c0.6,0.4,1.1,0.3,1.6,0c3.7-2.1,7.4-4.3,11.1-6.4c0.6-0.3,0.8-0.7,0.8-1.3
			c0-1.6,0-3.3,0-4.9c0-0.9,0.3-1.4,1.1-1.8c1.4-0.8,2.8-1.5,4.2-2.3c0.5-0.3,1-0.5,1-1.3c0-2.1,0-4.2,0-6.2c0-0.4-0.1-0.7-0.5-1
			c-1.7-1-3.5-2-5.2-3c-0.6-0.3-1.1-0.4-1.7-0.1c-1.7,0.9-3.3,1.9-5,2.8c-0.6,0.3-0.8,0.8-0.8,1.4c0,1.7,0,3.4,0,5.2
			c0,0.5-0.1,0.9-0.6,1.2C47.1,46.9,45.6,47.7,43.9,48.7z"/>
		<path class="st1" d="M43.9,48.7c1.7-1,3.1-1.8,4.6-2.6c0.5-0.3,0.6-0.6,0.6-1.2c0-1.7,0-3.4,0-5.2c0-0.7,0.2-1.1,0.8-1.4
			c1.7-0.9,3.3-1.9,5-2.8c0.6-0.3,1.2-0.2,1.7,0.1c1.7,1,3.5,2,5.2,3c0.4,0.2,0.5,0.5,0.5,1c0,2.1,0,4.2,0,6.2c0,0.8-0.5,1-1,1.3
			c-1.4,0.8-2.8,1.6-4.2,2.3c-0.7,0.4-1.1,0.9-1.1,1.8c0.1,1.6,0,3.3,0,4.9c0,0.6-0.2,1-0.8,1.3c-3.7,2.1-7.4,4.2-11.1,6.4
			c-0.6,0.3-1,0.3-1.6,0c-3.7-2.1-7.3-4.2-11-6.3c-0.7-0.4-0.9-0.8-0.9-1.6c0-6.5,0-12.9,0-19.4c0-0.8,0.2-1.2,0.9-1.6
			c1.4-0.7,2.7-1.4,4-2.2c1.2-0.8,2.2-1,3.4-0.1c1.2,0.9,2.6,1.5,3.9,2.2c0.7,0.4,1,0.9,1,1.8C43.9,40.5,43.9,44.5,43.9,48.7z
			 M60.9,40.3c-1.4,0.8-2.8,1.6-4.2,2.3c-0.4,0.2-0.6,0.5-0.6,0.9c0,1.5,0,2.9,0,4.4c0,0.5,0.1,0.8,0.7,0.4c1.3-0.8,2.5-1.5,3.8-2.2
			c0.6-0.3,0.8-0.8,0.8-1.5c-0.1-1.5,0-2.9,0-4.4C61.3,40,61.1,40.1,60.9,40.3z M43,62.6c0-1.8,0-3.5,0-5.1c0-0.6-0.3-0.9-0.7-1.1
			c-1.4-0.8-2.8-1.6-4.2-2.3c-0.8-0.4-1.1-0.9-1.1-1.8c0.1-3.5,0.1-6.9,0-10.4c0-0.9,0.2-2.1-0.7-2.7c-1.1-0.7-2.3-1.3-3.5-2
			c-0.6-0.4-1-0.4-1,0.5c0,5.9,0,11.8,0,17.7c0,0.5,0.1,0.9,0.6,1.2C35.8,58.5,39.3,60.5,43,62.6z M55.2,53.9c0-1.1,0-1.8,0-2.5
			c0-0.7-0.2-0.8-0.8-0.5c-3.2,1.9-6.5,3.7-9.8,5.6c-0.5,0.3-0.7,0.6-0.7,1.1c0,1.4,0,2.8,0,4.2c0,0.7,0.1,0.9,0.8,0.5
			c2.7-1.6,5.3-3.2,8.1-4.6C54.6,56.7,55.8,55.8,55.2,53.9z M38.4,53.1c1.6,0.9,3.1,1.7,4.6,2.6c0.5,0.3,0.8,0.1,1.2-0.1
			c3.3-1.8,6.5-3.7,9.8-5.5c0.6-0.3,0.6-0.6,0-0.9c-1.1-0.6-2.3-1.2-3.3-1.9c-0.7-0.5-1.3-0.4-2.1,0C45.3,49.2,41.9,51.1,38.4,53.1z
			 M37.9,52.1c1.7-1,3.2-1.8,4.7-2.7c0.3-0.2,0.3-0.5,0.3-0.8c0-3.7,0-7.4,0-11.1c0-0.6-0.1-0.8-0.7-0.4c-1.2,0.7-2.4,1.4-3.6,2.1
			c-0.5,0.3-0.7,0.6-0.7,1.2c0,2.2,0,4.5,0,6.7C37.9,48.7,37.9,50.3,37.9,52.1z M37.4,38.6c0.1,0,0.2-0.1,0.3-0.1
			c1.4-0.8,2.8-1.6,4.1-2.4c0.7-0.4,0.2-0.6-0.1-0.8c-0.9-0.5-1.8-1-2.7-1.6c-1.2-0.8-2.2-0.9-3.3,0c-0.8,0.6-1.7,1-2.6,1.5
			c-0.8,0.4-0.7,0.7,0,1c1.1,0.6,2.2,1.3,3.3,1.9C36.7,38.3,37,38.4,37.4,38.6z M60.8,39.1c-1.5-0.9-2.8-1.6-4.1-2.4
			c-0.7-0.4-1.2-0.5-1.9,0c-1.3,0.9-2.7,1.6-4.2,2.4c1.6,0.9,3.1,1.8,4.6,2.6c0.3,0.2,0.6,0.3,1,0C57.7,40.9,59.2,40.1,60.8,39.1z
			 M50.2,40.1c0,1.9,0,3.5,0,5.2c0,0.4,0.2,0.6,0.5,0.8c1.2,0.7,2.5,1.4,3.7,2.2c0.6,0.4,0.8,0.1,0.8-0.5c0-1.4,0-2.8,0-4.2
			c0-0.4-0.1-0.7-0.4-0.9C53.3,41.8,51.8,41,50.2,40.1z"/>
		<path class="st0" d="M43,62.6c-3.7-2.1-7.2-4.1-10.7-6.1c-0.5-0.3-0.6-0.7-0.6-1.2c0-5.9,0-11.8,0-17.7c0-0.9,0.3-0.9,1-0.5
			c1.2,0.7,2.4,1.3,3.5,2c1,0.6,0.7,1.8,0.7,2.7c0.1,3.5,0.1,6.9,0,10.4c0,0.9,0.3,1.4,1.1,1.8c1.4,0.7,2.8,1.5,4.2,2.3
			c0.4,0.2,0.7,0.6,0.7,1.1C43,59.2,43,60.8,43,62.6z"/>
		<path class="st0" d="M55.2,53.9c0.6,1.8-0.6,2.8-2.4,3.7c-2.8,1.4-5.4,3-8.1,4.6c-0.7,0.4-0.8,0.2-0.8-0.5c0-1.4,0-2.8,0-4.2
			c0-0.6,0.2-0.9,0.7-1.1c3.3-1.8,6.5-3.7,9.8-5.6c0.6-0.3,0.9-0.2,0.8,0.5C55.2,52.1,55.2,52.9,55.2,53.9z"/>
		<path class="st2" d="M38.4,53.1c3.5-2,6.9-3.9,10.2-5.8c0.8-0.4,1.3-0.5,2.1,0c1.1,0.7,2.2,1.3,3.3,1.9c0.6,0.3,0.6,0.6,0,0.9
			c-3.3,1.8-6.5,3.7-9.8,5.5c-0.4,0.2-0.7,0.4-1.2,0.1C41.5,54.8,40,54,38.4,53.1z"/>
		<path class="st0" d="M37.9,52.1c0-1.9,0-3.5,0-5.1c0-2.2,0-4.5,0-6.7c0-0.6,0.2-0.9,0.7-1.2c1.2-0.6,2.4-1.3,3.6-2.1
			c0.7-0.4,0.7-0.1,0.7,0.4c0,3.7,0,7.4,0,11.1c0,0.3,0,0.6-0.3,0.8C41.1,50.3,39.6,51.2,37.9,52.1z"/>
		<path class="st0" d="M61.4,40.3c0,1.5,0,3,0,4.4c0,0.7-0.2,1.1-0.8,1.5c-1.3,0.7-2.6,1.4-3.8,2.2c-0.6,0.4-0.7,0.1-0.7-0.4
			c0-1.5,0-2.9,0-4.4c0-0.5,0.2-0.7,0.6-0.9c1.4-0.8,2.8-1.6,4.2-2.3C61.1,40.3,61.3,40.3,61.4,40.3z"/>
		<path class="st2" d="M37.4,38.6c-0.3-0.2-0.7-0.3-1-0.5c-1.1-0.6-2.2-1.3-3.3-1.9c-0.6-0.4-0.7-0.7,0-1c0.9-0.4,1.8-0.9,2.6-1.5
			c1.2-0.9,2.2-0.8,3.3,0c0.8,0.6,1.8,1.1,2.7,1.6c0.4,0.2,0.8,0.4,0.1,0.8c-1.4,0.8-2.8,1.6-4.1,2.4C37.6,38.5,37.5,38.6,37.4,38.6
			z"/>
		<path class="st2" d="M60.8,39.1c-1.7,1-3.2,1.8-4.6,2.7c-0.4,0.2-0.7,0.1-1,0c-1.5-0.9-3-1.7-4.6-2.6c1.4-0.8,2.9-1.5,4.2-2.4
			c0.7-0.5,1.3-0.4,1.9,0C58,37.5,59.3,38.3,60.8,39.1z"/>
		<path class="st0" d="M50.2,40.1c1.7,0.9,3.1,1.8,4.6,2.6c0.3,0.2,0.4,0.5,0.4,0.9c0,1.4,0,2.8,0,4.2c0,0.6-0.2,0.9-0.8,0.5
			c-1.2-0.7-2.5-1.5-3.7-2.2c-0.3-0.2-0.6-0.4-0.5-0.8C50.2,43.6,50.2,41.9,50.2,40.1z"/>
		<path class="st3" d="M61.4,40.3c-0.2,0-0.3,0-0.5,0C61.1,40.1,61.3,40,61.4,40.3z"/>
	</g>
</g>
</svg>
