<?xml version="1.0" encoding="utf-8"?>
<!-- Generator: Adobe Illustrator 26.0.1, SVG Export Plug-In . SVG Version: 6.00 Build 0)  -->
<svg version="1.1" id="Calque_1" xmlns="http://www.w3.org/2000/svg" xmlns:xlink="http://www.w3.org/1999/xlink" x="0px" y="0px"
	 viewBox="0 0 96 96" style="enable-background:new 0 0 96 96;" xml:space="preserve">
<style type="text/css">
	.st0{fill:#FEFEFE;}
	.st1{fill:#D0D0D0;}
	.st2{fill:#FDFDFD;}
</style>
<g>
	<g>
		<path class="st0" d="M96,48c0,15.7,0,31.3,0,47c0,0.8-0.2,1-1,1c-31.3,0-62.7,0-94,0c-0.8,0-1-0.2-1-1C0,63.7,0,32.3,0,1
			c0-0.8,0.2-1,1-1c31.3,0,62.7,0,94,0c0.8,0,1,0.2,1,1C96,16.7,96,32.3,96,48z M47.4,67.4c2.7-0.1,4.6,0,6.5-0.2
			c3.2-0.3,6.4-0.7,9.5-1.6c4.5-1.3,8.9-3.1,12.6-6.1c4.5-3.7,6.1-9.2,2.2-14.2c-1.9-2.5-4.5-4.2-7.2-5.5c-5.9-3-12.3-4.2-18.9-4.6
			c-3-0.2-6-0.1-9.1,0.1c-5,0.5-9.9,1.3-14.6,3.2c-3.8,1.5-7.3,3.5-10,6.7c-1.1,1.4-2,2.9-2.3,4.7c-0.5,3.7,1,6.8,3.6,9.2
			c3.4,3.1,7.5,5,11.8,6.3C37,66.7,42.6,67.6,47.4,67.4z"/>
		<path class="st1" d="M47.4,67.4c-4.8,0.1-10.4-0.7-15.8-2.2c-4.4-1.3-8.4-3.2-11.8-6.3c-2.7-2.4-4.2-5.5-3.6-9.2
			c0.3-1.7,1.1-3.3,2.3-4.7c2.7-3.2,6.2-5.2,10-6.7c4.7-1.9,9.6-2.7,14.6-3.2c3-0.3,6.1-0.3,9.1-0.1c6.5,0.4,13,1.6,18.9,4.6
			c2.7,1.4,5.3,3,7.2,5.5c3.9,5.1,2.2,10.5-2.2,14.2c-3.7,3-8,4.8-12.6,6.1c-3.1,0.9-6.3,1.3-9.5,1.6C52,67.4,50.1,67.4,47.4,67.4z
			 M64,55.9c1.1-0.1,2.5,0.2,3.7-0.3c2.8-1.1,4.4-3.3,4.7-6.2c0.5-3.6-1.7-5.9-5.3-6c-2.3,0-4.6,0-6.9,0c-0.9,0-1.3,0.4-1.4,1.2
			c-1,5.3-1.9,10.5-2.9,15.8c-0.1,0.5-0.2,0.7,0.5,0.8c3,0.3,3.1,0.2,3.7-2.7c0.5-2.6,0.5-2.6,3.1-2.6C63.3,55.9,63.5,55.9,64,55.9z
			 M33.7,43.5C33.7,43.5,33.7,43.5,33.7,43.5c-1.2,0-2.5,0-3.7,0c-0.6,0-0.9,0.1-1,0.8c-0.5,2.1-0.9,4.3-1.3,6.4
			c-0.6,3.3-1.2,6.6-1.8,9.8c-0.1,0.6,0.1,0.7,0.6,0.7c3,0.3,3.2,0.1,3.6-2.9c0-0.2,0-0.3,0-0.5c0.4-1.9,0.4-1.9,2.3-1.9
			c1.2,0,2.4,0,3.6,0c0.8,0,1.5-0.2,2.2-0.5c2.3-1,3.5-2.9,4.1-5.1c1-3.6-0.7-6.2-4.3-6.8C36.6,43.3,35.1,43.5,33.7,43.5z
			 M50.9,43.4c-0.5,0-1,0-1.4,0c-1.3,0-1.4-0.2-1.2-1.5c0-0.2,0.1-0.4,0.2-0.6c0.6-2.8,0.6-2.8-2.2-2.8c-0.6,0-1,0.1-1.1,0.9
			c-1.1,5.1-2.2,10.3-3.2,15.4c-0.2,0.7,0,1.2,0.9,1.1c0.6-0.1,1.3,0,1.9,0c0.6,0,0.9-0.1,1-0.8c0.3-2,0.7-4,1.2-6
			c0.3-1-0.2-2.5,0.9-3c0.9-0.4,2.2-0.1,3.3-0.1c1,0,1.5,0.4,1.5,1.5c-0.1,1.9-0.6,3.8-1,5.6c-0.5,2.7-0.5,2.7,2.3,2.7
			c0.8,0,1.1-0.3,1.3-1c0.5-2.3,1-4.7,1.4-7c0.5-2.5-0.5-3.7-2.9-4.3C52.7,43.4,51.8,43.5,50.9,43.4z"/>
		<path class="st2" d="M64,55.9c-0.4,0-0.7,0-0.9,0c-2.6,0-2.6,0-3.1,2.6c-0.5,2.9-0.7,3-3.7,2.7c-0.6-0.1-0.6-0.3-0.5-0.8
			c1-5.3,2-10.5,2.9-15.8c0.2-0.8,0.5-1.3,1.4-1.2c2.3,0.1,4.6,0,6.9,0c3.6,0,5.7,2.3,5.3,6c-0.4,2.9-1.9,5.1-4.7,6.2
			C66.4,56.1,65.1,55.8,64,55.9z M63.2,53.3c3.3,0,4.3-0.5,5-3.1c0.6-2.3,0.1-4.2-2.9-4.1c-0.7,0-1.4,0-2,0c-0.6,0-1,0.2-1.1,0.8
			c-0.2,1.5-0.8,2.9-0.8,4.4c0,0.6-0.7,1.4-0.2,1.9C61.7,53.5,62.5,53.3,63.2,53.3z"/>
		<path class="st2" d="M33.7,43.5c1.4,0,2.8-0.2,4.2,0c3.7,0.6,5.3,3.2,4.3,6.8c-0.6,2.3-1.8,4.2-4.1,5.1c-0.7,0.3-1.4,0.5-2.2,0.5
			c-1.2,0-2.4,0-3.6,0c-1.9,0-1.9,0-2.3,1.9c0,0.2,0,0.3,0,0.5c-0.4,3-0.6,3.2-3.6,2.9c-0.5,0-0.7-0.1-0.6-0.7
			c0.6-3.3,1.3-6.5,1.8-9.8c0.4-2.2,0.8-4.3,1.3-6.4c0.2-0.7,0.4-0.8,1-0.8C31.3,43.5,32.5,43.4,33.7,43.5
			C33.7,43.5,33.7,43.5,33.7,43.5z M34.6,46.1c-0.6,0-1.1,0-1.7,0c-0.3,0-0.7,0-0.7,0.5c0.2,1.5-0.7,2.8-0.8,4.2
			c0,0.8-0.9,1.9-0.1,2.4c0.6,0.4,1.7,0.1,2.6,0.1c3,0,4.5-1.5,4.5-4.6c0-1.7-0.8-2.5-2.5-2.6C35.4,46.1,35,46.1,34.6,46.1z"/>
		<path class="st2" d="M50.9,43.4c0.9,0,1.8,0,2.8,0.2c2.5,0.5,3.4,1.8,2.9,4.3c-0.4,2.3-1,4.7-1.4,7c-0.1,0.7-0.5,1-1.3,1
			c-2.8,0-2.8,0-2.3-2.7c0.4-1.9,0.9-3.7,1-5.6c0-1.1-0.5-1.5-1.5-1.5c-1.1,0-2.4-0.3-3.3,0.1c-1.1,0.5-0.6,2-0.9,3
			c-0.5,2-0.9,4-1.2,6c-0.1,0.7-0.4,0.8-1,0.8c-0.6,0-1.3-0.1-1.9,0c-0.9,0.1-1.1-0.4-0.9-1.1c1.1-5.1,2.2-10.3,3.2-15.4
			c0.1-0.7,0.5-0.8,1.1-0.9c2.8,0,2.9,0,2.2,2.8c0,0.2-0.1,0.4-0.2,0.6c-0.2,1.3,0,1.5,1.2,1.5C49.9,43.4,50.4,43.4,50.9,43.4z"/>
		<path class="st1" d="M63.2,53.3c-0.7,0-1.5,0.2-2-0.2c-0.5-0.4,0.1-1.2,0.2-1.9c0-1.5,0.6-2.9,0.8-4.4c0.1-0.6,0.4-0.9,1.1-0.8
			c0.7,0.1,1.4,0,2,0c3-0.1,3.5,1.8,2.9,4.1C67.5,52.8,66.5,53.3,63.2,53.3z"/>
		<path class="st1" d="M34.6,46.1c0.4,0,0.9,0,1.3,0c1.7,0.1,2.5,0.9,2.5,2.6c0,3-1.5,4.6-4.5,4.6c-0.9,0-2,0.3-2.6-0.1
			c-0.7-0.5,0.1-1.6,0.1-2.4c0-1.4,0.9-2.7,0.8-4.2c0-0.4,0.3-0.5,0.7-0.5C33.4,46.1,34,46.1,34.6,46.1z"/>
	</g>
</g>
</svg>
